Coordinates
version=1
nRows=14
nColumns=36
inDegrees=yes

Units are S.I. units (second, meters, Newtons, ...)
If the header above contains a line with 'inDegrees', this indicates whether rotational values are in degrees (yes) or radians (no).

endheader
time	pelvis_tilt	pelvis_list	pelvis_rotation	pelvis_tx	pelvis_ty	pelvis_tz	hip_flexion_r	hip_adduction_r	hip_rotation_r	knee_angle_r	knee_angle_r_beta	ankle_angle_r	subtalar_angle_r	mtp_angle_r	hip_flexion_l	hip_adduction_l	hip_rotation_l	knee_angle_l	knee_angle_l_beta	ankle_angle_l	subtalar_angle_l	mtp_angle_l	lumbar_extension	lumbar_bending	lumbar_rotation	arm_flex_r	arm_add_r	arm_rot_r	elbow_flex_r	pro_sup_r	arm_flex_l	arm_add_l	arm_rot_l	elbow_flex_l	pro_sup_l
      2.02000000	    -15.42028104	     -2.66029897	      2.92808158	     -0.33821866	      0.80440154	     -0.56139637	     67.04586478	      2.10192695	     -0.78175525	     83.44631830	      1.45641300	     31.17864604	    -15.81767141	     -7.50071446	     68.41960075	     -4.26648544	      1.92636328	     83.29664069	      1.45380064	     31.78245136	     -8.41524399	     -7.50071446	    -25.62800289	      1.30872048	     -1.26136496	     36.23711359	    -15.67132708	      1.58191046	    108.22649864	    109.10650474	     22.59814055	    -24.03156098	      3.35053454	     94.86529133	     95.66361604
      2.03000000	    -14.86055510	     -2.50657672	      3.18007810	     -0.33319450	      0.80483895	     -0.56194871	     66.20256714	      2.06465354	     -0.54711838	     83.83091731	      1.46312552	     31.55543556	    -16.24113188	     -7.50070942	     67.55042301	     -3.88446150	      2.00378142	     83.51984214	      1.45769624	     32.08364539	     -8.67463720	     -7.50070942	    -25.38212263	      1.02224079	     -1.58935924	     36.36907516	    -16.81986727	      2.77574734	    108.44480310	    109.27106013	     22.40723499	    -24.72274368	      4.25501379	     94.65101060	     95.70560344
      2.04000000	    -14.32874928	     -2.34074419	      3.33127953	     -0.32816646	      0.80628228	     -0.56214292	     65.25528383	      2.17061468	     -0.24357775	     83.95413637	      1.46527610	     31.84497065	    -16.59356937	     -7.50070439	     66.56681954	     -3.61806606	      2.03134484	     83.53746751	      1.45800386	     32.30696979	     -8.85341477	     -7.50070439	    -24.92546130	      0.77613809	     -1.96098362	     37.11454142	    -18.24552996	      4.12882661	    109.44985839	    109.50343550	     22.28640285	    -25.97640464	      5.01732627	     96.02633892	     95.95631145
      2.05000000	    -13.87013113	     -2.15756127	      3.48105465	     -0.32312303	      0.80867206	     -0.56240508	     64.25913370	      2.23827074	      0.07323610	     83.87307724	      1.46386135	     32.04894196	    -16.90098706	     -7.50069897	     65.53181048	     -3.34597922	      2.02095328	     83.35542956	      1.45482670	     32.48230535	     -8.96644689	     -7.50069897	    -24.27060758	      0.56359670	     -2.45132600	     38.50939557	    -19.99087574	      5.54924207	    111.05393814	    109.77903103	     22.29966030	    -27.61507296	      5.23372365	     98.73270610	     96.35752896
      2.06000000	    -13.34696155	     -1.99914473	      3.64695590	     -0.31807347	      0.81232260	     -0.56296334	     63.04007980	      2.19668384	      0.29930174	     83.54278695	      1.45809670	     32.17898854	    -17.07681623	     -7.50066691	     64.27793121	     -3.04694805	      2.05526065	     82.92363689	      1.44729049	     32.63151155	     -9.09405002	     -7.50066691	    -23.68394671	      0.50258575	     -4.17306256	     41.79737112	    -21.11009331	      8.37927996	    111.81056080	    110.28396155	     21.02014745	    -30.01179584	      2.79521222	    103.37767272	     97.22564678
      2.07000000	    -13.14512331	     -1.91886633	      3.79562467	     -0.31301231	      0.81654932	     -0.56335635	     62.07314850	      2.14382369	      0.41638338	     83.00889089	      1.44877845	     32.21659898	    -17.14843046	     -7.50066216	     63.28208342	     -2.80085590	      2.16141152	     82.30123876	      1.43642759	     32.66314846	     -9.11330958	     -7.50066216	    -22.51538033	      0.29210400	     -4.20543811	     44.30044692	    -23.80061401	      9.27956160	    113.92931712	    110.50852449	     22.48060741	    -31.96636994	      2.96171119	    106.65901752	     97.66951329
      2.08000000	    -12.63927642	     -1.83310951	      3.89746687	     -0.30775565	      0.82238734	     -0.56324918	     60.61369567	      2.19894387	      0.54505308	     82.18416515	      1.43438427	     32.15856791	    -17.28387213	     -7.50065551	     61.80344410	     -2.74335965	      2.14620143	     81.43605014	      1.42132720	     32.64620324	     -9.17809877	     -7.50065551	    -21.61336850	      0.10918556	     -4.30501056	     47.83294593	    -26.64458012	     10.61999244	    115.78134650	    110.68806754	     24.65835459	    -34.39604123	      2.82734129	    109.65508126	     98.05953189
      2.09000000	    -12.37368667	     -1.72028455	      3.99408369	     -0.30247393	      0.82888632	     -0.56322317	     59.30744544	      2.25535863	      0.78808248	     81.16250561	      1.41655295	     32.03599380	    -17.45710714	     -7.50065044	     60.45895070	     -2.58557379	      2.17132633	     80.33596788	      1.40212715	     32.51471020	     -9.14150765	     -7.50065044	    -20.30539858	     -0.07240832	     -4.31247312	     52.13615793	    -29.40518906	     11.82306817	    116.79781514	    110.75917580	     27.63951881	    -36.55946122	      2.66511504	    112.44349907	     98.34365262
      2.10000000	    -11.76539198	     -1.60634891	      4.08112686	     -0.29687149	      0.83726100	     -0.56306581	     57.42915994	      2.32521792	      0.98993335	     79.78962809	      1.39259172	     31.60561852	    -17.85498753	     -7.50063685	     58.55759190	     -2.55220975	      2.08301631	     78.92041665	      1.37742112	     32.29130419	     -9.30971204	     -7.50063685	    -19.29121717	     -0.17670805	     -4.43967460	     57.58065559	    -32.00881036	     13.90699524	    116.96988818	    110.56624118	     31.31951357	    -39.20117115	      2.39471266	    114.40048615	     98.28701915
      2.11000000	    -11.43981021	     -1.43684612	      4.14074768	     -0.29101561	      0.84640706	     -0.56297164	     55.75640928	      2.27159842	      1.21145056	     78.24375057	      1.36561107	     31.13086881	    -17.96489723	     -7.50062506	     56.80121067	     -2.49976964	      1.88566433	     77.23675750	      1.34803572	     31.90197430	     -9.34655117	     -7.50062506	    -17.93154700	     -0.39391079	     -4.49814028	     63.46038272	    -34.40349736	     15.98232862	    116.73239089	    110.34090123	     35.59142047	    -41.91629564	      2.32720918	    116.29216269	     98.13880656
      2.12000000	    -11.08324110	     -1.30474014	      4.21748138	     -0.28489317	      0.85698745	     -0.56296831	     53.88845120	      2.14500353	      1.28603999	     76.38507523	      1.33317106	     30.50507167	    -18.01821684	     -7.50061025	     54.87011407	     -2.46329159	      1.71218263	     75.26983860	      1.31370651	     31.28464680	     -9.42057479	     -7.50061025	    -16.59872778	     -0.53935070	     -4.49717108	     69.91762745	    -36.68137232	     18.60008059	    115.99203359	    109.94337859	     40.47843872	    -44.64034197	      2.49104670	    117.86135227	     97.75791780
      2.13000000	    -10.72948668	     -1.21751334	      4.33149213	     -0.27837343	      0.86904603	     -0.56302713	     51.82840998	      1.99500234	      1.22928600	     74.15941062	      1.29432589	     29.62930337	    -18.15024076	     -7.50058873	     52.78599429	     -2.45763266	      1.56148307	     72.97486952	      1.27365174	     30.39555821	     -9.44570420	     -7.50058873	    -15.28541438	     -0.61871498	     -4.39768482	     76.76670840	    -39.02325948	     21.79489316	    115.21512379	    109.22778857	     46.07345679	    -47.32141727	      3.26153447	    119.09919704	     96.99942753
      2.14000000	    -10.38214422	     -0.98530319	      4.47411088	     -0.27144170	      0.88244833	     -0.56321820	     49.61511300	      1.69611591	      1.24689651	     71.69660071	      1.25134174	     28.69782874	    -18.05882021	     -7.50058055	     50.51047632	     -2.33509320	      1.27961373	     70.34822374	      1.22780813	     29.28215117	     -9.08596922	     -7.50058055	    -14.04509063	     -0.86713808	     -4.64668681	     83.89360564	    -40.74349323	     25.15647791	    114.02179136	    108.98642508	     51.97389561	    -50.60027395	      4.29722747	    120.47592198	     96.82377988
      2.15000000	     -9.82382286	     -0.91551298	      4.62460827	     -0.26431974	      0.89746407	     -0.56365609	     46.92544833	      1.60233214	      1.24976406	     68.67582630	      1.19861929	     27.21060177	    -18.71445185	     -7.50053767	     47.86513231	     -2.28713244	      1.16449635	     67.38591509	      1.17610609	     27.94532852	     -9.46471603	     -7.50053767	    -12.98150363	     -0.97511529	     -3.46171198	     91.66729097	    -44.33658195	     29.56175852	    113.49567549	    107.44563330	     60.61348615	    -51.56471322	      8.39375250	    119.88490679	     94.82572310
